<mxfile host="app.diagrams.net" modified="2022-11-22T06:32:21.768Z" agent="5.0 (Windows NT 10.0; Win64; x64) AppleWebKit/537.36 (KHTML, like Gecko) Chrome/87.0.4280.88 Safari/537.36" etag="kEVJNcUSvxJ3LSATj50B" version="20.2.3" type="github">
  <diagram id="dZKs5h17jaXdTMRJxYjV" name="第 1 页">
    <mxGraphModel dx="1422" dy="794" grid="1" gridSize="10" guides="1" tooltips="1" connect="1" arrows="1" fold="1" page="1" pageScale="1" pageWidth="827" pageHeight="1169" math="0" shadow="0">
      <root>
        <mxCell id="0" />
        <mxCell id="1" parent="0" />
        <mxCell id="3MDEaU0jOOdYMgQNEfnh-3" value="" style="rounded=0;whiteSpace=wrap;html=1;" vertex="1" parent="1">
          <mxGeometry x="46" y="188" width="751" height="385" as="geometry" />
        </mxCell>
        <mxCell id="3MDEaU0jOOdYMgQNEfnh-12" value="dispatch" style="edgeStyle=orthogonalEdgeStyle;rounded=0;orthogonalLoop=1;jettySize=auto;html=1;exitX=0.5;exitY=0;exitDx=0;exitDy=0;entryX=0;entryY=0.5;entryDx=0;entryDy=0;endArrow=classic;endFill=1;startArrow=classic;startFill=1;" edge="1" parent="1" source="3MDEaU0jOOdYMgQNEfnh-4">
          <mxGeometry relative="1" as="geometry">
            <mxPoint x="267" y="378" as="targetPoint" />
          </mxGeometry>
        </mxCell>
        <mxCell id="3MDEaU0jOOdYMgQNEfnh-7" value="Conroutine Pool" style="text;html=1;resizable=0;autosize=1;align=center;verticalAlign=middle;points=[];fillColor=none;strokeColor=none;rounded=0;" vertex="1" parent="1">
          <mxGeometry x="430" y="535" width="110" height="30" as="geometry" />
        </mxCell>
        <mxCell id="3MDEaU0jOOdYMgQNEfnh-14" value="" style="group" vertex="1" connectable="0" parent="1">
          <mxGeometry x="87" y="233" width="96.25" height="290" as="geometry" />
        </mxCell>
        <mxCell id="3MDEaU0jOOdYMgQNEfnh-4" value="" style="rounded=1;whiteSpace=wrap;html=1;rotation=90;arcSize=14;" vertex="1" parent="3MDEaU0jOOdYMgQNEfnh-14">
          <mxGeometry x="-98.75" y="98.75" width="290" height="92.5" as="geometry" />
        </mxCell>
        <mxCell id="3MDEaU0jOOdYMgQNEfnh-5" value="Uwsgi&amp;nbsp;&lt;br&gt;Gevent Model" style="text;html=1;resizable=0;autosize=1;align=center;verticalAlign=middle;points=[];fillColor=none;strokeColor=none;rounded=0;" vertex="1" parent="3MDEaU0jOOdYMgQNEfnh-14">
          <mxGeometry x="-3.75" y="125" width="100" height="40" as="geometry" />
        </mxCell>
        <mxCell id="3MDEaU0jOOdYMgQNEfnh-17" value="" style="group" vertex="1" connectable="0" parent="1">
          <mxGeometry x="267" y="233" width="170" height="70" as="geometry" />
        </mxCell>
        <mxCell id="3MDEaU0jOOdYMgQNEfnh-8" value="" style="rounded=0;whiteSpace=wrap;html=1;" vertex="1" parent="3MDEaU0jOOdYMgQNEfnh-17">
          <mxGeometry width="170" height="70" as="geometry" />
        </mxCell>
        <mxCell id="3MDEaU0jOOdYMgQNEfnh-15" value="rw" style="ellipse;whiteSpace=wrap;html=1;" vertex="1" parent="3MDEaU0jOOdYMgQNEfnh-17">
          <mxGeometry y="20" width="70" height="30" as="geometry" />
        </mxCell>
        <mxCell id="3MDEaU0jOOdYMgQNEfnh-16" value="invoke&amp;nbsp; a callable object" style="ellipse;whiteSpace=wrap;html=1;" vertex="1" parent="3MDEaU0jOOdYMgQNEfnh-17">
          <mxGeometry x="80" y="20" width="90" height="30" as="geometry" />
        </mxCell>
        <mxCell id="3MDEaU0jOOdYMgQNEfnh-18" value="" style="group" vertex="1" connectable="0" parent="1">
          <mxGeometry x="267" y="343" width="170" height="70" as="geometry" />
        </mxCell>
        <mxCell id="3MDEaU0jOOdYMgQNEfnh-19" value="" style="rounded=0;whiteSpace=wrap;html=1;" vertex="1" parent="3MDEaU0jOOdYMgQNEfnh-18">
          <mxGeometry width="170" height="70" as="geometry" />
        </mxCell>
        <mxCell id="3MDEaU0jOOdYMgQNEfnh-20" value="rw" style="ellipse;whiteSpace=wrap;html=1;" vertex="1" parent="3MDEaU0jOOdYMgQNEfnh-18">
          <mxGeometry y="20" width="70" height="30" as="geometry" />
        </mxCell>
        <mxCell id="3MDEaU0jOOdYMgQNEfnh-21" value="invoke&amp;nbsp; a callable object" style="ellipse;whiteSpace=wrap;html=1;" vertex="1" parent="3MDEaU0jOOdYMgQNEfnh-18">
          <mxGeometry x="80" y="20" width="90" height="30" as="geometry" />
        </mxCell>
        <mxCell id="3MDEaU0jOOdYMgQNEfnh-22" value="" style="group" vertex="1" connectable="0" parent="1">
          <mxGeometry x="267" y="453" width="170" height="70" as="geometry" />
        </mxCell>
        <mxCell id="3MDEaU0jOOdYMgQNEfnh-23" value="" style="rounded=0;whiteSpace=wrap;html=1;" vertex="1" parent="3MDEaU0jOOdYMgQNEfnh-22">
          <mxGeometry width="170" height="70" as="geometry" />
        </mxCell>
        <mxCell id="3MDEaU0jOOdYMgQNEfnh-24" value="rw" style="ellipse;whiteSpace=wrap;html=1;" vertex="1" parent="3MDEaU0jOOdYMgQNEfnh-22">
          <mxGeometry y="20" width="70" height="30" as="geometry" />
        </mxCell>
        <mxCell id="3MDEaU0jOOdYMgQNEfnh-25" value="invoke&amp;nbsp; a callable object" style="ellipse;whiteSpace=wrap;html=1;" vertex="1" parent="3MDEaU0jOOdYMgQNEfnh-22">
          <mxGeometry x="80" y="20" width="90" height="30" as="geometry" />
        </mxCell>
        <mxCell id="3MDEaU0jOOdYMgQNEfnh-27" value="" style="group" vertex="1" connectable="0" parent="1">
          <mxGeometry x="527" y="453" width="170" height="70" as="geometry" />
        </mxCell>
        <mxCell id="3MDEaU0jOOdYMgQNEfnh-28" value="" style="rounded=0;whiteSpace=wrap;html=1;" vertex="1" parent="3MDEaU0jOOdYMgQNEfnh-27">
          <mxGeometry width="170" height="70" as="geometry" />
        </mxCell>
        <mxCell id="3MDEaU0jOOdYMgQNEfnh-29" value="rw" style="ellipse;whiteSpace=wrap;html=1;" vertex="1" parent="3MDEaU0jOOdYMgQNEfnh-27">
          <mxGeometry y="20" width="70" height="30" as="geometry" />
        </mxCell>
        <mxCell id="3MDEaU0jOOdYMgQNEfnh-30" value="business processing" style="ellipse;whiteSpace=wrap;html=1;" vertex="1" parent="3MDEaU0jOOdYMgQNEfnh-27">
          <mxGeometry x="80" y="20" width="90" height="30" as="geometry" />
        </mxCell>
        <mxCell id="3MDEaU0jOOdYMgQNEfnh-31" value="" style="group" vertex="1" connectable="0" parent="1">
          <mxGeometry x="527" y="345.5" width="170" height="70" as="geometry" />
        </mxCell>
        <mxCell id="3MDEaU0jOOdYMgQNEfnh-32" value="" style="rounded=0;whiteSpace=wrap;html=1;" vertex="1" parent="3MDEaU0jOOdYMgQNEfnh-31">
          <mxGeometry width="170" height="70" as="geometry" />
        </mxCell>
        <mxCell id="3MDEaU0jOOdYMgQNEfnh-33" value="rw" style="ellipse;whiteSpace=wrap;html=1;" vertex="1" parent="3MDEaU0jOOdYMgQNEfnh-31">
          <mxGeometry y="20" width="70" height="30" as="geometry" />
        </mxCell>
        <mxCell id="3MDEaU0jOOdYMgQNEfnh-34" value="business processing" style="ellipse;whiteSpace=wrap;html=1;" vertex="1" parent="3MDEaU0jOOdYMgQNEfnh-31">
          <mxGeometry x="80" y="20" width="90" height="30" as="geometry" />
        </mxCell>
        <mxCell id="3MDEaU0jOOdYMgQNEfnh-35" value="" style="group" vertex="1" connectable="0" parent="1">
          <mxGeometry x="527" y="233" width="170" height="70" as="geometry" />
        </mxCell>
        <mxCell id="3MDEaU0jOOdYMgQNEfnh-36" value="" style="rounded=0;whiteSpace=wrap;html=1;" vertex="1" parent="3MDEaU0jOOdYMgQNEfnh-35">
          <mxGeometry width="170" height="70" as="geometry" />
        </mxCell>
        <mxCell id="3MDEaU0jOOdYMgQNEfnh-37" value="rw" style="ellipse;whiteSpace=wrap;html=1;" vertex="1" parent="3MDEaU0jOOdYMgQNEfnh-35">
          <mxGeometry y="20" width="70" height="30" as="geometry" />
        </mxCell>
        <mxCell id="3MDEaU0jOOdYMgQNEfnh-38" value="business processing" style="ellipse;whiteSpace=wrap;html=1;" vertex="1" parent="3MDEaU0jOOdYMgQNEfnh-35">
          <mxGeometry x="80" y="20" width="90" height="30" as="geometry" />
        </mxCell>
        <mxCell id="3MDEaU0jOOdYMgQNEfnh-40" value="Main Thread" style="text;html=1;resizable=0;autosize=1;align=center;verticalAlign=middle;points=[];fillColor=none;strokeColor=none;rounded=0;" vertex="1" parent="1">
          <mxGeometry x="90.75" y="535" width="85" height="26" as="geometry" />
        </mxCell>
        <mxCell id="3MDEaU0jOOdYMgQNEfnh-43" value="dispatch" style="edgeStyle=orthogonalEdgeStyle;rounded=0;orthogonalLoop=1;jettySize=auto;html=1;endArrow=classic;endFill=1;startArrow=classic;startFill=1;exitX=1;exitY=0.5;exitDx=0;exitDy=0;" edge="1" parent="1" source="3MDEaU0jOOdYMgQNEfnh-21">
          <mxGeometry relative="1" as="geometry">
            <mxPoint x="440" y="383" as="sourcePoint" />
            <mxPoint x="526" y="378" as="targetPoint" />
          </mxGeometry>
        </mxCell>
      </root>
    </mxGraphModel>
  </diagram>
</mxfile>
